<svg t="1572252298669" class="icon" viewBox="0 0 1024 1024" version="1.1" xmlns="http://www.w3.org/2000/svg" p-id="18057" width="512" height="512"><path d="M938.666667 901.12H593.92c-30.72 0-58.026667 44.373333-68.266667 71.68v17.066667h-17.066666v-23.893334c-13.653333-27.306667-37.546667-64.853333-64.853334-64.853333H85.333333c-44.373333 0-78.506667-34.133333-78.506666-78.506667V146.773333C6.826667 102.4 40.96 68.266667 85.333333 68.266667h351.573334c44.373333 0 78.506667 34.133333 78.506666 78.506666 0-44.373333 34.133333-78.506667 78.506667-78.506666h344.746667c44.373333 0 78.506667 34.133333 78.506666 78.506666v675.84c0 40.96-34.133333 78.506667-78.506666 78.506667zM416.426667 109.226667H92.16c-23.893333 0-40.96 17.066667-40.96 37.546666v669.013334c0 20.48 17.066667 37.546667 37.546667 37.546666h327.68c40.96 0 81.92 34.133333 85.333333 37.546667V180.906667c-3.413333-40.96-44.373333-71.68-85.333333-71.68z m556.373333 37.546666c0-20.48-17.066667-37.546667-37.546667-37.546666H614.4c-44.373333 0-88.746667 34.133333-88.746667 78.506666v709.973334s47.786667-37.546667 88.746667-37.546667h320.853333c20.48 0 37.546667-17.066667 37.546667-37.546667V146.773333z m-64.853333 662.186667h-276.48c-58.026667 0-58.026667 17.066667-58.026667 17.066667V215.04c0-30.72 27.306667-58.026667 58.026667-58.026667h276.48c10.24 0 20.48 10.24 20.48 20.48v610.986667c0 13.653333-10.24 20.48-20.48 20.48z m-512 0H119.466667c-10.24 0-20.48-10.24-20.48-20.48V177.493333c0-10.24 10.24-20.48 20.48-20.48H341.333333c3.413333 0 6.826667 0 10.24 3.413334l47.786667-3.413334c30.72 0 58.026667 27.306667 58.026667 58.026667v610.986667c0 3.413333 0-17.066667-61.44-17.066667z m0 0" fill="#ffffff" p-id="18058"></path></svg>
