<?xml version="1.0" standalone="no"?><!DOCTYPE svg PUBLIC "-//W3C//DTD SVG 1.1//EN" "http://www.w3.org/Graphics/SVG/1.1/DTD/svg11.dtd"><svg t="1572290951147" class="icon" viewBox="0 0 1024 1024" version="1.1" xmlns="http://www.w3.org/2000/svg" p-id="6303" xmlns:xlink="http://www.w3.org/1999/xlink" width="512" height="512"><defs><style type="text/css"></style></defs><path d="M512 1023.954125C794.748826 1023.954125 1024 794.707251 1024 511.955558 1023.998566 229.208166 794.748826 0 512 0 229.251174 0 0 229.208166 0 511.955558 0 794.707251 229.251174 1023.954125 512 1023.954125L512 1023.954125ZM510.562867 105.322189C735.980851 105.322189 918.728858 288.022323 918.728858 513.437133 918.728858 738.946099 735.980851 921.6 510.562867 921.6 285.146419 921.6 102.4 738.946099 102.4 513.437133 102.4 288.022323 285.146419 105.322189 510.562867 105.322189L510.562867 105.322189ZM488.355328 577.280256 768.695603 577.280256C794.51945 577.280256 815.42057 556.383846 815.42057 530.649446 815.42057 504.825651 794.520986 483.833446 768.695603 483.833446L535.078707 483.833446 535.078707 250.21655C535.078707 224.483789 514.18071 203.493171 488.355328 203.493171 462.528358 203.493171 441.631949 224.483789 441.631949 250.21655L441.631949 530.649446C441.630362 556.385382 462.528358 577.280256 488.355328 577.280256L488.355328 577.280256Z" p-id="6304"></path></svg>