<svg t="1572251611753" class="icon" viewBox="0 0 1024 1024" version="1.1" xmlns="http://www.w3.org/2000/svg" p-id="2042" width="512" height="512"><path d="M920.997647 59.934118a91.949176 91.949176 0 0 0-65.957647-27.105883H166.851765A93.153882 93.153882 0 0 0 75.294118 126.494118v558.08a91.678118 91.678118 0 0 0 44.272941 80.112941l340.630588 213.232941a92.431059 92.431059 0 0 0 96.376471 0l347.557647-213.232941a93.364706 93.364706 0 0 0 44.272941-81.618824V126.494118a94.388706 94.388706 0 0 0-27.407059-66.56z m-174.682353 333.101176l-79.811765 78.305882a37.827765 37.827765 0 0 0-10.24 30.418824l18.974118 111.736471a34.063059 34.063059 0 0 1-13.251765 33.731764 33.129412 33.129412 0 0 1-35.538823 2.409412l-99.087059-52.705882a29.394824 29.394824 0 0 0-31.322353 0l-99.087059 52.705882a32.376471 32.376471 0 0 1-35.84-2.108235 34.544941 34.544941 0 0 1-13.251764-34.032941l19.877647-111.736471a34.123294 34.123294 0 0 0-10.541177-30.418824L277.383529 391.529412a34.514824 34.514824 0 0 1-8.734117-35.84 33.792 33.792 0 0 1 27.708235-23.190588l111.134118-16.564706a32.557176 32.557176 0 0 0 25.298823-19.576471l48.790588-102.701176a33.400471 33.400471 0 0 1 60.536471 0l48.790588 102.701176a34.334118 34.334118 0 0 0 25.298824 19.576471l111.134117 16.564706a35.809882 35.809882 0 0 1 28.009412 24.094117 36.291765 36.291765 0 0 1-9.035294 36.442353z" p-id="2043" fill="#ffffff"></path></svg>
