<?xml version="1.0" standalone="no"?><!DOCTYPE svg PUBLIC "-//W3C//DTD SVG 1.1//EN" "http://www.w3.org/Graphics/SVG/1.1/DTD/svg11.dtd"><svg t="1572251881891" class="icon" viewBox="0 0 1024 1024" version="1.1" xmlns="http://www.w3.org/2000/svg" p-id="4708" xmlns:xlink="http://www.w3.org/1999/xlink" width="512" height="512"><defs><style type="text/css"></style></defs><path d="M111.610419 0.018617h801.193395A109.515979 109.515979 0 0 1 1023.948803 107.998673v657.51476a109.515979 109.515979 0 0 1-111.098446 107.88697h-245.189195l-105.978701 127.435082a65.160378 65.160378 0 0 1-90.107494 9.21554 47.613619 47.613619 0 0 1-9.21554-9.21554l-105.978701-127.435082H111.610419A109.655608 109.655608 0 0 1 0 765.653063V107.95213A109.609065 109.609065 0 0 1 111.610419 0.018617zM511.974401 748.571735c16.755526 0.325802 33.04562-6.143693 45.053748-17.872561a61.809273 61.809273 0 0 0 0-89.037003 65.067292 65.067292 0 0 0-90.107495 0.511975 60.040634 60.040634 0 0 0-18.943053 44.029798c-0.465431 16.895155 6.469495 33.138707 18.943053 44.49523 12.008127 11.728868 28.251678 18.15182 45.053747 17.872561z m81.915904-307.184641c22.014899-19.920459 44.029799-40.166719 65.486181-60.87841 12.473558-12.706274 22.992305-27.134643 31.230438-42.866221a122.873856 122.873856 0 0 0 13.311335-57.89965 140.93259 140.93259 0 0 0-23.038848-77.727023 159.875643 159.875643 0 0 0-65.998155-56.317184 222.010718 222.010718 0 0 0-98.299085-20.478976 213.539868 213.539868 0 0 0-104.954752 24.85403A179.656472 179.656472 0 0 0 343.48828 212.813796a139.257037 139.257037 0 0 0-23.550822 74.794805c0.372345 12.566644 5.678262 24.481685 14.847257 33.138707 9.401712 10.006772 22.573417 15.591948 36.30364 15.359232a51.709415 51.709415 0 0 0 49.70806-43.890169c6.236779-23.504279 17.826018-45.23992 33.79031-63.531369a79.77492 79.77492 0 0 1 61.90236-21.549468c21.689097-0.884319 42.819677 6.795297 58.923599 21.409839 14.893801 13.264791 23.318107 32.394017 23.038848 52.407561 0.046543 10.332574-2.606415 20.478976-7.679616 29.4618a120.081269 120.081269 0 0 1-18.431078 24.760944 734.45055 734.45055 0 0 1-35.372777 32.812904 504.992932 504.992932 0 0 0-44.49523 42.912764 139.629382 139.629382 0 0 0-26.622669 41.981901c-6.981469 17.919104-10.425661 37.048329-10.239488 56.317184-1.070492 14.428369 3.956166 28.670566 13.823309 39.282399 9.029367 8.796651 21.177123 13.497507 33.79031 13.171705a42.959307 42.959307 0 0 0 45.565722-40.445977c2.559872-12.659731 5.119744-21.502925 6.143693-26.529583 1.48938-5.35246 3.583821-10.518747 6.143693-15.359232 3.258019-6.050607 7.214185-11.635782 11.775411-16.755526 6.562581-7.4469 13.590593-14.567999 20.944407-21.223666v0.046543z" p-id="4709" fill="#ffffff"></path></svg>