<?xml version="1.0" standalone="no"?><!DOCTYPE svg PUBLIC "-//W3C//DTD SVG 1.1//EN"
    "http://www.w3.org/Graphics/SVG/1.1/DTD/svg11.dtd">
<svg t="1572258679605" class="icon" viewBox="0 0 1024 1024" version="1.1" xmlns="http://www.w3.org/2000/svg" p-id="2036"
     xmlns:xlink="http://www.w3.org/1999/xlink" width="512" height="512">
    <defs>
        <style type="text/css"></style>
    </defs>
    <path
        d="M512 0C229.248 0 0 229.248 0 512c0 282.752 229.248 512 512 512 282.752 0 512-229.248 512-512C1024 229.248 794.752 0 512 0zM512 896c-212.096 0-384-171.904-384-384 0-212.096 171.904-384 384-384 212.096 0 384 171.904 384 384C896 724.096 724.096 896 512 896zM704 448 576 448 576 320c0-35.328-28.672-64-64-64C476.672 256 448 284.672 448 320l0 192c0 35.328 28.672 64 64 64l192 0c35.328 0 64-28.672 64-64S739.328 448 704 448z"
        p-id="2037"></path>
</svg>
