<svg t="1572252409685" class="icon" viewBox="0 0 1204 1024" version="1.1" xmlns="http://www.w3.org/2000/svg" p-id="31336" width="512" height="512"><path d="M509.329569 176.188235A672.587294 672.587294 0 0 0 150.387451 771.513725a47.184314 47.184314 0 0 0 47.063843 47.284706 47.184314 47.184314 0 0 0 47.063843-47.304784c0.281098-291.57898 264.332549-441.364078 552.096628-464.875922v-3.312941h80.313725v2.469647c0.140549 63.327373 5.12 103.705098 14.998588 121.153255 14.97851 26.503529 46.642196 16.76549 64.692706-0.542117l167.333647-231.363765c0-39.815529 0-45.738667-12.649411-65.054118a62.243137 62.243137 0 0 0-6.987295-8.83451c-12.910431-13.552941-31.001098-20.620549-46.58196-20.720941-75.434667-0.401569-145.488314-0.582275-210.18102-0.582274h-28.912941a663.190588 663.190588 0 0 0-309.308235 76.358274z m694.854274 1.365334c0.341333 2.81098 0.522039 5.662118 0.522039 8.493176V954.327843A69.672157 69.672157 0 0 1 1135.033725 1024H69.672157A69.672157 69.672157 0 0 1 0 954.327843V183.777882a69.672157 69.672157 0 0 1 81.779451-68.608c113.684078 20.078431 213.293176 35.639216 298.827294 46.742589A743.544471 743.544471 0 0 1 818.617725 19.516235h28.93302c64.833255 0 135.027451 0.200784 210.68298 0.602353 46.581961 0.281098 93.364706 24.756706 120.269804 65.877334 6.344784 9.677804 10.922667 17.78949 14.878118 27.266509 8.653804 20.680784 10.460863 31.723922 10.802196 64.291138z" fill="#ffffff" p-id="31337"></path></svg>
