<?xml version="1.0" standalone="no"?><!DOCTYPE svg PUBLIC "-//W3C//DTD SVG 1.1//EN" "http://www.w3.org/Graphics/SVG/1.1/DTD/svg11.dtd"><svg t="1572290757919" class="icon" viewBox="0 0 1024 1024" version="1.1" xmlns="http://www.w3.org/2000/svg" p-id="2072" xmlns:xlink="http://www.w3.org/1999/xlink" width="512" height="512"><defs><style type="text/css"></style></defs><path d="M512.758519 1014.139259C233.623704 1014.139259 6.826667 787.342222 6.826667 508.207407S233.623704 3.034074 512.758519 3.034074s505.931852 226.797037 505.931851 505.931852-226.797037 505.173333-505.931851 505.173333z m0-980.764444C251.06963 33.374815 37.167407 246.518519 37.167407 508.965926s213.143704 475.591111 475.591112 475.591111 475.591111-213.143704 475.591111-475.591111S775.205926 33.374815 512.758519 33.374815z" fill="#7AC143" p-id="2073"></path><path d="M512.758519 933.736296c-234.382222 0-424.77037-190.388148-424.770371-424.77037s190.388148-424.77037 424.770371-424.77037 424.77037 190.388148 424.77037 424.77037-190.388148 424.77037-424.77037 424.77037z m0-834.37037c-226.038519 0-409.6 183.561481-409.6 409.6s183.561481 409.6 409.6 409.6 409.6-183.561481 409.6-409.6-183.561481-409.6-409.6-409.6z" fill="#7AC143" p-id="2074"></path><path d="M508.965926 788.859259c-51.579259 0-102.4-14.411852-147.911111-42.477037l8.343704-12.894815c84.195556 52.337778 189.62963 53.096296 275.342222 3.034074 81.161481-47.786667 129.706667-132.740741 130.465185-226.797037h15.17037c-0.758519 97.848889-53.096296 190.388148-138.05037 239.691852-44.752593 26.548148-94.056296 39.442963-143.36 39.442963zM228.314074 516.551111C225.28 414.151111 278.376296 318.577778 365.605926 266.24c86.471111-50.820741 194.180741-52.337778 281.41037-2.275556l-7.585185 12.894815c-82.678519-47.028148-184.32-45.511111-266.24 2.275556C290.512593 328.438519 240.45037 419.460741 243.484444 515.792593l-15.17037 0.758518z" fill="#7AC143" p-id="2075"></path><path d="M473.315556 116.053333l14.411851 28.823704 31.09926 5.30963-22.755556 21.997037 4.551111 31.099259-28.065185-15.17037-28.065185 15.17037 5.309629-31.857778-21.997037-22.755555 31.09926-3.792593zM619.70963 135.774815l3.034074 31.857778 27.306666 15.17037-28.823703 12.894815-6.826667 31.099259-21.238519-24.272593-31.099259 3.792593 15.928889-27.306667-12.894815-28.823703 31.09926 6.826666zM128.948148 436.906667l26.548148 17.445926v31.857777l25.031111-19.721481 30.340741 9.860741-10.619259-30.340741 18.204444-25.78963-31.857777 1.517037-18.962963-25.789629-8.343704 30.34074zM185.837037 297.339259l18.204444 25.78963-10.619259 30.340741 30.340741-9.860741 25.031111 19.721481 0.758519-31.857777 26.548148-17.445926-30.340741-10.61926-9.102222-30.34074-18.962963 25.789629zM312.50963 171.425185l27.306666 17.445926 29.582223-12.136296-8.343704 31.099259 20.48 24.272593-31.857778 1.517037-16.687407 27.306666-11.377778-29.582222-31.099259-7.585185 25.031111-20.48zM842.714074 739.555556l-18.962963-25.78963 11.377778-30.340741-31.099259 9.860741-25.031111-19.721482V705.422222l-26.548149 18.204445 30.340741 9.86074 8.343704 31.09926 19.721481-25.78963zM895.81037 602.263704l-26.548148-17.445926v-32.616297l-25.789629 19.721482-30.340741-9.102222 11.377778 29.582222-18.962963 26.548148 31.857777-1.517037 18.962963 25.78963 9.102223-30.340741zM395.188148 887.466667l-2.275555-31.857778-28.065186-15.17037 29.582223-12.894815 6.068148-31.09926 21.238518 23.514075 31.09926-3.034075-15.928889 27.306667 12.894814 28.823704-31.099259-6.826667zM545.374815 904.912593l-14.411852-28.823704-31.099259-5.30963 22.755555-21.997037-5.309629-31.099259 28.065185 14.411852 28.823704-14.411852-6.068149 31.857778 22.755556 21.997037-31.099259 4.551111zM716.041481 854.091852l-2.275555-31.857778 25.031111-20.48-31.099259-7.585185-11.377778-29.582222-16.687407 27.306666-31.857778 1.517037 20.48 24.272593-8.343704 31.099259 29.582222-12.136296z" fill="#7AC143" p-id="2076"></path><path d="M384.568889 556.752593L360.296296 515.792593 278.376296 563.579259c-8.343704 4.551111-13.653333 8.343704-18.204444 12.136297l-6.826667-11.377778c4.551111-2.275556 10.619259-4.551111 18.962963-9.860741l74.334815-43.994074c7.585185-4.551111 12.136296-7.585185 17.445926-11.377778 2.275556 4.551111 4.551111 9.102222 8.343704 15.170371l18.204444 31.099259c4.551111 7.585185 6.826667 11.377778 9.860741 15.17037-6.068148 3.034074-13.653333 7.585185-16.687408 9.102222h-0.758518l-78.885926 47.028149 26.548148 44.752592c3.034074 5.30963 5.30963 7.585185 9.102222 6.826667 6.826667-0.758519 15.17037-5.30963 46.26963-23.514074 37.167407-21.997037 43.235556-26.548148 43.235555-33.374815 0-4.551111-4.551111-15.928889-10.619259-26.548148 4.551111 0 8.343704-0.758519 12.894815-3.034074 8.343704 18.204444 11.377778 27.306667 10.619259 33.374815-1.517037 9.102222-9.102222 15.928889-49.303703 39.442962-35.65037 21.238519-47.786667 26.548148-56.888889 26.548149-5.30963 0-9.102222-3.034074-13.653334-10.61926l-40.96-69.025185c-5.30963-8.343704-7.585185-12.136296-11.377777-16.687407l12.136296-6.826667c2.275556 4.551111 4.551111 9.860741 9.102222 17.445926l6.826667 12.136296L384.568889 556.752593zM466.488889 479.383704c5.30963-3.034074 9.860741-6.068148 13.653333-9.102223 1.517037 3.792593 3.792593 7.585185 7.585185 14.411852l44.752593 75.851852c4.551111 7.585185 3.034074 12.136296-6.826667 18.204445l-1.517037 0.758518s-0.758519 0.758519-1.517037 0.758519c-3.792593-3.792593-5.30963-5.30963-8.343703-6.826667 0.758519-0.758519 0.758519-0.758519 2.275555-0.758519 0.758519 0 0.758519 0 3.034074-1.517037 1.517037-0.758519 2.275556-0.758519 2.275556-1.517037 2.275556-1.517037 2.275556-2.275556 1.517037-4.551111L507.448889 538.548148l-13.653333 7.585185 13.653333 22.755556c3.034074 5.30963 6.826667 10.619259 9.860741 14.411852l-10.61926 6.068148c-2.275556-5.30963-4.551111-10.619259-7.585185-15.928889l-13.653333-22.755556-14.411852 8.343704c9.860741 20.48 12.894815 29.582222 14.411852 45.511111-6.826667-1.517037-6.826667-1.517037-12.136296-1.517037 0-18.962963-6.826667-34.133333-32.616297-78.885926-5.30963-8.343704-7.585185-12.894815-10.619259-16.687407 0 2.275556-0.758519 3.792593-0.758519 7.585185-4.551111-1.517037-6.068148-1.517037-11.377777-2.275555 4.551111-16.687407 4.551111-30.340741 2.275555-47.786667-0.758519-5.30963-1.517037-7.585185-3.034074-12.136296l11.377778-3.792593c0 2.275556 0 2.275556 1.517037 10.619259 0 0.758519 0 1.517037 0.758519 2.275556l14.411851-8.343704c5.30963-3.034074 6.826667-4.551111 8.343704-6.068148l7.585185 2.275555V462.696296c0 5.30963 0.758519 11.377778 0.758519 17.445926l4.551111-0.758518z m-15.17037 8.343703c0-7.585185 0-15.928889-0.758519-25.789629L430.08 474.074074v1.517037c0.758519 7.585185 0.758519 13.653333 0 24.272593 4.551111-3.034074 5.30963-3.034074 11.377778-6.826667l9.860741-5.30963z m-11.377778 18.204445l6.068148 10.619259 4.551111 7.585185 13.653333-8.343703-10.619259-18.204445-13.653333 8.343704z m40.201481 37.167407L468.764444 523.377778l-13.653333 8.343703c1.517037 3.034074 3.034074 4.551111 3.792593 6.068149 3.034074 5.30963 3.034074 5.30963 7.585185 13.653333l13.653333-8.343704z m-7.585185-32.616296l14.411852-8.343704-10.619259-18.204444-14.411852 9.102222 10.619259 17.445926z m30.340741-84.954074c3.792593 9.860741 4.551111 15.17037 5.309629 23.514074 0 10.619259-2.275556 18.962963-9.86074 32.616296-3.034074-1.517037-6.068148-3.034074-11.377778-3.792592 11.377778-18.962963 12.894815-29.582222 6.068148-47.028148l-7.585185 4.551111c-6.826667 3.792593-11.377778 6.826667-14.411852 9.86074l-6.068148-9.86074c3.792593-1.517037 8.343704-3.792593 15.928889-8.343704l35.65037-21.238519c6.068148-3.792593 9.860741-6.068148 13.653333-9.102222 1.517037 2.275556 1.517037 3.034074 3.034075 6.068148 4.551111 8.343704 8.343704 18.204444 10.619259 24.272593 4.551111 12.136296 3.034074 16.687407-6.826667 21.997037-3.792593 2.275556-8.343704 4.551111-15.17037 7.585185-2.275556-3.792593-3.792593-5.30963-6.826667-8.343704 6.826667-2.275556 11.377778-3.792593 15.17037-6.068148 4.551111-3.034074 5.30963-4.551111 4.551112-8.343703-1.517037-6.068148-3.792593-12.136296-9.102223-22.755556l-22.755555 14.411852z m-25.78963 93.297778l11.377778 19.721481 14.411852-8.343704-11.377778-19.721481-14.411852 8.343704z m58.405926-39.442963l-2.275555-3.792593c-3.034074-4.551111-5.30963-8.343704-8.343704-12.136296l10.619259-6.068148c1.517037 4.551111 3.792593 8.343704 6.826667 12.894814l2.275555 3.792593 11.377778-6.826667c7.585185-4.551111 11.377778-6.826667 14.411852-9.86074l6.068148 10.619259c-4.551111 1.517037-8.343704 3.792593-15.17037 8.343704l-11.377778 6.826666 11.377778 18.962963 15.928889-9.102222c6.068148-3.792593 9.860741-6.068148 14.411851-9.860741L596.954074 493.037037c-3.792593 1.517037-7.585185 3.792593-14.411852 7.585185l-16.687407 9.860741 12.894815 21.238518c3.792593 6.068148 6.068148 9.860741 9.102222 13.653334l-10.619259 6.826666c-2.275556-4.551111-3.792593-8.343704-7.585186-14.411851L556.752593 515.792593l-19.721482 11.377777c-5.30963 3.034074-9.102222 5.30963-12.894815 8.343704l-6.068148-10.619259c4.551111-1.517037 8.343704-3.792593 14.411852-6.826667l19.721481-11.377778-11.377777-18.962963-17.445926 10.61926c0.758519 6.068148 1.517037 10.619259 0.758518 18.962963-4.551111 0-6.826667 0-10.619259 0.758518 1.517037-11.377778 0.758519-18.962963-3.034074-30.340741-1.517037-4.551111-2.275556-6.826667-3.034074-8.343703l10.619259-3.792593 3.034074 12.136296 14.411852-8.343703zM565.096296 376.983704c15.928889 4.551111 25.031111 8.343704 40.201482 15.928889l-5.30963 11.377777c-15.17037-8.343704-25.031111-12.136296-40.201481-16.687407l5.309629-10.619259z m101.641482 25.789629c-3.792593-9.102222-10.619259-21.997037-17.445926-33.374814l-1.517037-2.275556-16.687408 9.860741c-6.826667 3.792593-10.619259 6.826667-14.411851 9.86074l-6.068149-10.619259c4.551111-1.517037 8.343704-3.792593 15.928889-8.343704l16.687408-9.86074-6.826667-11.377778c-3.792593-6.068148-6.826667-10.619259-9.860741-14.411852l12.136297-6.826667c2.275556 5.30963 3.792593 9.102222 7.585185 15.928889l6.826666 11.377778 25.78963-15.17037c6.826667-4.551111 10.619259-6.826667 13.653333-9.102222 2.275556 4.551111 3.792593 7.585185 7.585186 13.653333l18.204444 31.099259V371.674074c6.068148-3.792593 9.102222-6.068148 12.894815-9.102222l6.068148 10.619259c-5.30963 2.275556-9.860741 4.551111-15.928889 8.343704l-35.65037 21.238518c9.860741 7.585185 18.204444 12.136296 28.823703 15.928889 17.445926 6.068148 33.374815 8.343704 52.337778 6.068148-0.758519 4.551111-0.758519 7.585185 0 13.653334-21.238519 0.758519-39.442963-2.275556-58.405926-10.61926-10.619259-4.551111-17.445926-9.102222-28.065185-17.445925 4.551111 15.17037 6.068148 28.823704 4.551111 43.235555-1.517037 15.17037-6.068148 27.306667-16.687407 44.752593-4.551111-3.034074-6.826667-3.792593-12.136296-4.551111 9.102222-12.894815 13.653333-21.997037 15.928888-33.374815 3.792593-15.17037 3.034074-30.340741-2.275555-47.786667L649.291852 424.77037c-6.068148 3.792593-12.136296 7.585185-15.928889 10.61926L627.294815 424.77037c4.551111-1.517037 9.860741-4.551111 16.687407-8.343703l22.755556-13.653334z m-35.650371 35.650371c3.792593 21.238519 5.30963 40.201481 6.068149 57.647407 0 5.30963 0 7.585185 0.758518 11.377778l-14.411852-2.275556c0.758519-3.792593 1.517037-6.068148 1.517037-10.619259 0.758519-18.204444-1.517037-36.408889-6.068148-58.405926l12.136296 2.275556z m76.610371-59.922963l-20.48-34.133334-29.582222 17.445926c7.585185 12.894815 13.653333 25.031111 18.204444 35.650371l31.857778-18.962963z" fill="#7AC143" p-id="2077"></path></svg>