<?xml version="1.0" standalone="no"?><!DOCTYPE svg PUBLIC "-//W3C//DTD SVG 1.1//EN"
    "http://www.w3.org/Graphics/SVG/1.1/DTD/svg11.dtd">
<svg t="1572290785449" class="icon" viewBox="0 0 1024 1024" version="1.1" xmlns="http://www.w3.org/2000/svg" p-id="4506"
     xmlns:xlink="http://www.w3.org/1999/xlink" width="512" height="512" fill="#475164">
    <defs>
        <style type="text/css"></style>
    </defs>
    <path
        d="M348.16 212.787a355.942 355.942 0 0 1 397.312 27.239l18.022-10.855A377.037 377.037 0 0 0 153.19 581.018l18.023-10.855A353.28 353.28 0 0 1 348.16 212.787z"
        p-id="4507"></path>
    <path
        d="M923.238 288.973a464.486 464.486 0 1 0-169.574 634.88 464.896 464.896 0 0 0 169.574-634.88z m-670.31 582.041a441.14 441.14 0 1 1 488.858 31.335 440.934 440.934 0 0 1-488.858-31.335zM880.64 481.28l18.022-11.06A377.446 377.446 0 0 1 292.864 820.43l18.227-10.855A357.58 357.58 0 0 0 880.64 481.28z"
        p-id="4508"></path>
    <path
        d="M239.82 659.66l71.476-40.96-12.083-20.48-61.44 35.84-12.493-23.756 61.44-35.84-14.746-25.19 24.781-14.336 14.746 25.19 63.488-36.864 13.312 22.938-63.488 36.864 12.083 20.48 72.704-41.78 13.312 22.938-64.102 37.274a186.982 186.982 0 0 0 95.232 8.192q-2.458 16.384-4.301 33.792a215.654 215.654 0 0 1-88.269-18.023l36.045 61.44-24.781 14.336-35.02-61.44a263.987 263.987 0 0 1-27.854 85.197c-10.24-4.71-20.48-8.602-29.9-12.083A236.34 236.34 0 0 0 317.44 644.3l-63.283 36.659z m296.756-99.327l36.454-20.48-11.264-19.456-16.793 9.83a100.147 100.147 0 0 1 1.638 20.48c-8.192 0-15.565 0-22.118 1.434l21.913 37.683a33.382 33.382 0 0 1 5.735 18.022 16.18 16.18 0 0 1-6.554 12.903 117.965 117.965 0 0 1-14.95 10.24l-8.602-9.83-13.721 7.782-19.252-35.021-10.65 6.144a163.84 163.84 0 0 1 16.794 53.453 209.306 209.306 0 0 0-27.033-8.397 198.246 198.246 0 0 0-28.467-71.68l-16.999-29.286c0 1.843-1.024 3.686-1.433 5.324a244.122 244.122 0 0 0-20.48-20.48 157.082 157.082 0 0 0 3.686-57.958l23.142-9.626c0 4.301 1.024 8.807 1.434 13.108l31.949-18.637 10.035 15.155v20.48l14.95-8.806 36.045 61.44a113.664 113.664 0 0 0-7.373-43.623l20.48-8.601c1.434 4.096 2.868 8.192 3.892 12.083l10.854-6.349-8.602-14.746 22.324-12.902 8.601 14.746 24.576-14.132 11.264 19.456-24.576 14.132 11.469 20.48 28.672-16.59 11.264 19.457-28.672 16.589 17.818 30.924-22.324 12.903-17.817-30.925-36.455 20.48z m-108.749-42.189l20.48-12.083v-20.48L429.67 496.64a190.464 190.464 0 0 1-1.843 21.504z m41.984 65.126l9.626-5.324-9.83-16.794-9.012 5.325s3.482 6.963 9.216 16.793z m-19.251-33.382l9.216-5.325-9.216-16.793-9.216 5.324zM477.389 512l-10.035 5.94 9.625 16.793 10.24-5.735z m19.046 55.91l10.035-5.734-9.625-16.589-10.24 5.735z m20.48 10.855l-10.035 5.939 14.131 24.166c4.301-2.252 6.759-4.3 7.168-6.348a13.722 13.722 0 0 0-2.662-8.807z m26.624-98.714a171.213 171.213 0 0 0-16.384-17.613 65.536 65.536 0 0 1-9.216 38.708 228.352 228.352 0 0 0-27.648-9.626 38.502 38.502 0 0 0 5.94-38.707l-16.385 9.625-11.264-19.25 82.944-48.129a187.802 187.802 0 0 1 21.914 47.514 26.214 26.214 0 0 1-3.686 17.203 91.546 91.546 0 0 1-27.034 20.275z m-16.589-18.637l13.517-7.168c4.301-2.457 6.554-5.12 6.759-8.192a46.49 46.49 0 0 0-7.578-18.022l-20.48 11.469a86.835 86.835 0 0 1 6.963 21.913z m52.839-80.486c17.613 4.71 34.611 10.035 50.585 15.974L620.34 425.37a519.168 519.168 0 0 0-48.947-19.047z m47.513 65.536c7.578 0 16.794 0 27.444-1.843l20.48 91.136h-27.853q-8.192-40.755-20.07-89.293z m28.058-7.373l33.997-20.48q-7.578-15.565-17.818-35.02l-30.925 18.022-13.926-22.733 31.744-18.432-15.155-26.829 24.166-14.131c5.325 9.011 10.24 18.022 15.155 27.034l51.2-29.901 33.178 57.344 14.131-8.192 13.722 23.347-61.44 35.43a100.966 100.966 0 0 0 84.173 9.216v31.744a120.013 120.013 0 0 1-93.799-18.227 137.83 137.83 0 0 1-17.408 83.968 191.283 191.283 0 0 0-29.081-13.107 97.69 97.69 0 0 0 20.48-72.09l-28.263 16.384z m69.018-85.401l-28.672 16.588c6.348 11.879 12.288 23.552 18.022 35.021l30.31-17.817z"
        p-id="4509"></path>
</svg>
